<?xml version="1.0" standalone="no"?>
<!DOCTYPE svg PUBLIC "-//W3C//DTD SVG 20010904//EN"
 "http://www.w3.org/TR/2001/REC-SVG-20010904/DTD/svg10.dtd">
<svg version="1.0" xmlns="http://www.w3.org/2000/svg"
 width="670.000000pt" height="670.000000pt" viewBox="0 0 670.000000 670.000000"
 preserveAspectRatio="xMidYMid meet">
<metadata>
Created by potrace 1.11, written by Peter Selinger 2001-2013
</metadata>
<g transform="translate(0.000000,670.000000) scale(0.100000,-0.100000)"
fill="#000000" stroke="none">
<path d="M562 4615 l-3 -1635 186 0 185 0 0 780 0 780 860 0 860 0 0 -780 0
-780 180 0 180 0 0 1635 0 1635 -180 0 -180 0 0 -705 0 -705 -860 0 -860 0 -2
353 c-1 404 -6 1014 -7 1040 -1 15 -16 17 -179 17 l-178 0 -2 -1635z"/>
<path d="M3972 4615 l-3 -1635 186 0 185 0 0 720 0 720 323 0 323 0 413 -720
413 -720 189 0 190 0 -12 23 c-14 26 -432 752 -666 1155 -90 155 -164 287
-166 293 -1 6 40 25 91 44 285 103 476 286 571 547 32 88 44 167 44 293 0 218
-46 378 -153 535 -134 195 -348 320 -634 370 -37 6 -299 10 -676 10 l-616 0
-2 -1635z m1264 1315 c43 -11 103 -32 131 -46 220 -107 339 -358 304 -639 -25
-212 -136 -372 -312 -455 -124 -57 -164 -62 -611 -67 l-408 -5 0 616 0 616
408 0 c377 0 415 -2 488 -20z"/>
<path d="M1977 1946 c-50 -18 -76 -42 -98 -91 -24 -51 -23 -99 0 -152 24 -53
72 -84 182 -122 114 -38 146 -56 164 -91 31 -60 12 -124 -45 -152 -75 -38
-193 -8 -257 65 -18 21 -36 37 -41 37 -4 0 -21 -13 -35 -28 l-28 -29 46 -42
c68 -63 141 -93 223 -92 81 0 123 12 169 47 42 32 63 78 63 138 0 110 -57 167
-218 216 -39 12 -87 32 -104 44 -125 84 -15 228 141 186 24 -6 61 -28 84 -50
l42 -38 33 28 33 27 -46 41 c-25 22 -67 48 -92 56 -57 19 -164 20 -216 2z"/>
<path d="M3736 1914 c-34 -33 -7 -94 42 -94 43 0 71 67 40 98 -17 17 -64 15
-82 -4z"/>
<path d="M3450 1810 l0 -80 -40 0 c-38 0 -40 -2 -40 -30 0 -28 2 -30 40 -30
l40 0 0 -205 0 -205 40 0 40 0 0 205 0 205 50 0 c49 0 50 1 50 30 0 29 -1 30
-50 30 l-50 0 0 80 0 80 -40 0 -40 0 0 -80z"/>
<path d="M2545 1736 c-50 -19 -117 -91 -133 -143 -21 -69 -15 -158 13 -218 40
-83 113 -128 209 -127 78 1 132 20 178 65 l41 40 -28 23 -29 23 -32 -33 c-20
-20 -50 -38 -78 -45 -61 -15 -73 -14 -122 10 -33 15 -49 32 -68 72 -14 28 -26
57 -26 64 0 10 44 13 193 15 l192 3 -3 45 c-5 85 -42 147 -109 187 -54 31
-141 39 -198 19z m181 -87 c25 -23 54 -76 54 -99 0 -6 -54 -10 -151 -10 l-151
0 6 26 c10 39 36 74 71 96 44 28 135 21 171 -13z"/>
<path d="M3077 1736 c-103 -37 -152 -115 -152 -241 0 -58 5 -89 19 -115 75
-142 230 -175 369 -78 33 24 34 41 3 57 -20 11 -28 10 -62 -12 -53 -35 -87
-42 -140 -27 -108 31 -157 194 -86 289 58 78 142 93 214 37 43 -32 45 -33 66
-15 30 24 28 33 -15 67 -67 52 -140 65 -216 38z"/>
<path d="M4108 1741 c-68 -22 -121 -72 -145 -136 -49 -129 -3 -273 106 -334
50 -28 145 -31 201 -7 134 58 182 254 95 388 -48 72 -173 116 -257 89z m142
-83 c70 -48 97 -117 79 -204 -13 -69 -58 -120 -120 -136 -42 -10 -51 -9 -95
13 -71 35 -96 82 -92 176 3 54 9 79 24 100 34 46 82 73 129 73 27 0 54 -8 75
-22z"/>
<path d="M4666 1740 c-16 -5 -44 -24 -63 -42 l-33 -32 0 32 c0 30 -2 32 -35
32 l-35 0 0 -235 0 -235 34 0 34 0 4 153 c5 171 18 215 72 248 37 22 96 25
135 5 47 -25 55 -56 59 -238 l4 -168 34 0 35 0 -3 188 c-3 182 -4 190 -28 225
-14 20 -41 44 -60 54 -42 20 -114 26 -154 13z"/>
<path d="M3740 1495 l0 -235 35 0 35 0 0 235 0 235 -35 0 -35 0 0 -235z"/>
<path d="M1750 916 c0 -32 3 -35 33 -38 l32 -3 0 -270 0 -270 -32 -3 c-30 -3
-33 -6 -33 -38 l0 -34 105 0 105 0 0 35 c0 32 -2 35 -30 35 l-30 0 0 275 0
275 30 0 c28 0 30 3 30 35 l0 35 -105 0 -105 0 0 -34z"/>
<path d="M2638 813 l-3 -78 -37 -3 c-34 -3 -38 -6 -38 -32 0 -26 4 -29 38 -32
l37 -3 3 -202 2 -203 35 0 35 0 0 205 0 205 55 0 c54 0 55 0 55 30 0 30 -1 30
-55 30 l-55 0 0 80 0 80 -35 0 -34 0 -3 -77z"/>
<path d="M4870 810 l0 -80 -40 0 c-38 0 -40 -2 -40 -30 0 -28 2 -30 40 -30
l40 0 0 -205 0 -205 40 0 40 0 0 205 0 205 50 0 c49 0 50 1 50 30 0 29 -1 30
-50 30 l-50 0 0 80 0 80 -40 0 -40 0 0 -80z"/>
<path d="M2224 731 c-23 -10 -49 -29 -58 -42 l-16 -23 0 32 c0 30 -2 32 -35
32 l-35 0 0 -235 0 -235 35 0 35 0 0 148 c0 121 4 154 19 187 27 59 53 78 115
83 48 4 56 1 87 -26 l34 -30 3 -181 3 -181 35 0 34 0 0 189 c0 179 -1 190 -23
222 -28 42 -98 79 -152 79 -22 0 -59 -9 -81 -19z"/>
<path d="M3052 735 c-19 -8 -47 -29 -63 -46 l-29 -31 0 36 c0 34 -1 36 -35 36
l-35 0 0 -235 0 -235 34 0 35 0 3 148 c3 126 6 153 24 187 29 56 75 85 135 85
47 0 49 1 49 29 0 43 -52 55 -118 26z"/>
<path d="M3345 736 c-50 -19 -117 -91 -133 -143 -43 -142 15 -284 136 -332 71
-29 172 -11 223 40 19 19 19 19 19 -11 0 -28 2 -30 40 -30 l40 0 0 235 0 235
-40 0 c-36 0 -40 -3 -40 -25 l0 -25 -43 31 c-53 37 -139 48 -202 25z m166 -79
c73 -48 100 -166 58 -253 -48 -100 -176 -120 -247 -40 -60 68 -68 171 -19 244
47 71 142 94 208 49z"/>
<path d="M3934 731 c-23 -10 -49 -29 -58 -42 l-16 -23 0 32 c0 30 -2 32 -35
32 l-35 0 0 -235 0 -235 35 0 35 0 0 148 c0 121 4 154 19 187 27 59 53 78 115
83 48 4 56 1 87 -26 l34 -30 3 -181 3 -181 35 0 34 0 0 189 c0 179 -1 190 -23
222 -28 42 -98 79 -152 79 -22 0 -59 -9 -81 -19z"/>
<path d="M4446 736 c-88 -33 -147 -123 -148 -229 -3 -159 89 -260 237 -259 76
1 136 24 183 73 l33 34 -28 22 -28 22 -35 -33 c-60 -59 -158 -70 -221 -25 -28
20 -69 92 -69 122 0 15 19 17 190 17 l190 0 0 48 c-1 80 -51 161 -124 199 -42
22 -133 26 -180 9z m161 -76 c31 -18 53 -50 67 -97 l7 -23 -150 0 c-169 0
-171 1 -130 67 44 71 138 95 206 53z"/>
</g>
</svg>
